<?xml version="1.0" encoding="UTF-8" standalone="no"?>
<svg
   xmlns:dc="http://purl.org/dc/elements/1.1/"
   xmlns:cc="http://creativecommons.org/ns#"
   xmlns:rdf="http://www.w3.org/1999/02/22-rdf-syntax-ns#"
   xmlns:svg="http://www.w3.org/2000/svg"
   xmlns="http://www.w3.org/2000/svg"
   xmlns:xlink="http://www.w3.org/1999/xlink"
   xmlns:sodipodi="http://sodipodi.sourceforge.net/DTD/sodipodi-0.dtd"
   xmlns:inkscape="http://www.inkscape.org/namespaces/inkscape"
   width="48px"
   height="48px"
   viewBox="8 14 48 48"
   version="1.1"
   id="svg4053"
   inkscape:version="0.48.4 r9939"
   sodipodi:docname="info.svg">
  <metadata
     id="metadata4086">
    <rdf:RDF>
      <cc:Work
         rdf:about="">
        <dc:format>image/svg+xml</dc:format>
        <dc:type
           rdf:resource="http://purl.org/dc/dcmitype/StillImage" />
      </cc:Work>
    </rdf:RDF>
  </metadata>
  <sodipodi:namedview
     pagecolor="#ffffff"
     bordercolor="#666666"
     borderopacity="1"
     objecttolerance="10"
     gridtolerance="10"
     guidetolerance="10"
     inkscape:pageopacity="0"
     inkscape:pageshadow="2"
     inkscape:window-width="1316"
     inkscape:window-height="747"
     id="namedview4084"
     showgrid="false"
     inkscape:zoom="4.9166667"
     inkscape:cx="24"
     inkscape:cy="24"
     inkscape:window-x="50"
     inkscape:window-y="21"
     inkscape:window-maximized="1"
     inkscape:current-layer="svg4053" />
  <defs
     id="defs4055">
    <circle
       id="path-1"
       cx="16"
       cy="16"
       r="16" />
    <filter
       x="-50%"
       y="-50%"
       width="200%"
       height="200%"
       filterUnits="objectBoundingBox"
       id="filter-2">
      <feOffset
         dx="0"
         dy="4"
         in="SourceAlpha"
         result="shadowOffsetOuter1"
         id="feOffset4059" />
      <feGaussianBlur
         stdDeviation="2"
         in="shadowOffsetOuter1"
         result="shadowBlurOuter1"
         id="feGaussianBlur4061" />
      <feColorMatrix
         values="0 0 0 0 0   0 0 0 0 0   0 0 0 0 0  0 0 0 0.24 0"
         type="matrix"
         in="shadowBlurOuter1"
         result="shadowMatrixOuter1"
         id="feColorMatrix4063" />
      <feOffset
         dx="0"
         dy="0"
         in="SourceAlpha"
         result="shadowOffsetOuter2"
         id="feOffset4065" />
      <feGaussianBlur
         stdDeviation="2"
         in="shadowOffsetOuter2"
         result="shadowBlurOuter2"
         id="feGaussianBlur4067" />
      <feColorMatrix
         values="0 0 0 0 0   0 0 0 0 0   0 0 0 0 0  0 0 0 0.12 0"
         type="matrix"
         in="shadowBlurOuter2"
         result="shadowMatrixOuter2"
         id="feColorMatrix4069" />
      <feMerge
         id="feMerge4071">
        <feMergeNode
           in="shadowMatrixOuter1"
           id="feMergeNode4073" />
        <feMergeNode
           in="shadowMatrixOuter2"
           id="feMergeNode4075" />
      </feMerge>
    </filter>
  </defs>
  <g
     id="info"
     stroke="none"
     stroke-width="1"
     fill="none"
     fill-rule="evenodd"
     transform="translate(16.000000, 24.000000)">
    <g
       id="Oval-2-Copy-2">
      <use
         fill="black"
         fill-opacity="1"
         filter="url(#filter-2)"
         xlink:href="#path-1"
         id="use4079" />
      <use
         fill="#FFFFFF"
         fill-rule="evenodd"
         xlink:href="#path-1"
         id="use4081" />
    </g>
    <path
       d="M17,13 L17,22 L15,22 L15,14 L14,14 L14,12 L17,12 L17,13 L17,13 Z M15,8 L17,8 L17,10 L15,10 L15,8 L15,8 Z M13,22 L19,22 L19,24 L13,24 L13,22 L13,22 Z"
       id="Combined-Shape"
       fill="#03A9F4" />
  </g>
  <path
     style="fill:#6441a4;fill-opacity:1;stroke:#646464;stroke-width:0.20338982000000000;stroke-opacity:1"
     d="m 21.19322,33.010169 0,-0.915254 0.915255,0 0.915254,0 0,-4.067796 0,-4.067797 -0.508475,0 c -0.467043,0 -0.508474,-0.07458 -0.508474,-0.915254 l 0,-0.915254 1.423728,0 1.423729,0 0,4.98305 0,4.983051 1.016949,0 1.01695,0 0,0.915254 0,0.915255 -2.847458,0 -2.847458,0 0,-0.915255 z"
     id="path4092"
     inkscape:connector-curvature="0"
     transform="translate(8,14)" />
  <path
     style="fill:#6441a4;fill-opacity:1;stroke:#646464;stroke-width:0.20338982;stroke-opacity:1"
     d="m 31.044068,32.976271 0,-0.915254 0.915254,0 0.915254,0 0,0.915254 0,0.915254 -0.915254,0 -0.915254,0 0,-0.915254 z"
     id="path4602"
     inkscape:connector-curvature="0" />
</svg>
